# Blender v2.69 (sub 0) OBJ File: 'robothead.blend'
# www.blender.org
o Cube.001_Cube.004
v 0.115641 2.765074 -0.216979
v 0.160759 2.676527 0.081911
v 0.155840 3.729973 -0.214697
v 0.155840 3.729973 -0.024714
v 0.002274 3.729973 -0.214697
v 0.002274 2.714826 -0.288299
v 0.002274 3.729973 -0.024714
v 0.002274 2.663564 0.039395
v 0.326682 3.491115 -0.457175
v 0.282338 3.491115 0.350871
v 0.002274 3.491115 -0.685158
v 0.002274 3.491115 0.350871
v 0.344059 3.349601 -0.457175
v 0.272892 3.445235 0.400072
v 0.002274 3.349601 -0.685158
v 0.002274 3.349601 0.400072
v 0.381912 3.200826 -0.457175
v 0.226101 3.178226 0.191012
v 0.002274 3.200826 -0.685158
v 0.002274 3.234888 0.418995
v 0.300526 3.025866 -0.376349
v 0.216455 2.903439 0.223751
v 0.002274 3.025866 -0.570768
v 0.002274 3.025866 0.418995
v 0.249792 2.841186 -0.288299
v 0.249792 2.841186 0.026417
v 0.002274 2.841186 -0.516282
v 0.002274 2.841186 -0.124602
v 0.298016 3.596839 -0.376349
v 0.253672 3.596839 0.320593
v 0.002274 3.596839 -0.604332
v 0.002274 3.596839 0.320593
v 0.343762 3.118814 -0.376349
v 0.180942 2.957161 0.497985
v 0.002274 3.118814 -0.604332
v 0.002274 2.957161 0.497985
v 0.155840 3.729973 -0.055720
v 0.115641 2.765074 0.063735
v 0.002274 2.706792 -0.043944
v 0.002274 3.729973 -0.055720
v 0.402079 3.491115 0.218993
v 0.440421 3.317117 0.260164
v 0.381912 3.229329 0.172080
v 0.300526 3.025866 0.289191
v 0.249792 2.841186 -0.005313
v 0.298016 3.596839 0.206848
v 0.180942 2.983544 0.510713
v 0.115641 2.765074 -0.121274
v 0.360190 3.491115 -0.156673
v 0.386884 3.335164 -0.138376
v 0.381912 3.213493 -0.177522
v 0.300526 3.025866 -0.080570
v 0.249792 2.841186 -0.084679
v 0.298016 3.596839 -0.117165
v 0.343762 3.058697 0.017878
v 0.155840 3.729973 -0.144045
v 0.002274 2.706792 -0.169128
v 0.002274 3.729973 -0.144045
v 0.081618 3.729973 -0.214697
v 0.061867 2.673235 0.059053
v 0.061867 2.739515 -0.216979
v 0.081618 3.729973 -0.024714
v 0.165559 3.491115 -0.561678
v 0.143771 3.491115 0.350871
v 0.174097 3.349601 -0.561678
v 0.139130 3.396589 0.400072
v 0.192695 3.200826 -0.561678
v 0.047237 3.234888 0.191012
v 0.152707 3.025866 -0.480852
v 0.127509 3.025866 0.418995
v 0.127780 2.841186 -0.392802
v 0.127780 2.841186 0.065566
v 0.151474 3.596839 -0.480852
v 0.129687 3.596839 0.320593
v 0.173951 3.118814 -0.480852
v 0.175833 2.957161 0.497985
v 0.061867 2.739515 0.008962
v 0.081618 3.729973 -0.055720
v 0.061867 2.739515 -0.145616
v 0.081618 3.729973 -0.144045
v 0.375149 3.227406 -0.457175
v 0.216619 3.295599 0.228363
v 0.002274 3.227406 -0.685158
v 0.002274 3.255383 0.415615
v 0.392365 3.245013 0.187817
v 0.382800 3.235231 -0.170528
v 0.189372 3.227406 -0.561678
v 0.063654 3.263777 0.228363
v -0.115641 2.765074 -0.216979
v -0.160759 2.676527 0.081911
v -0.155840 3.729973 -0.214697
v -0.155840 3.729973 -0.024714
v -0.002274 3.729973 -0.214697
v -0.002274 2.714826 -0.288299
v -0.002274 3.729973 -0.024714
v -0.002274 2.663564 0.039395
v -0.326682 3.491115 -0.457175
v -0.282338 3.491115 0.350871
v -0.002274 3.491115 -0.685158
v -0.002274 3.491115 0.350871
v -0.344059 3.349601 -0.457175
v -0.272892 3.445235 0.400072
v -0.002274 3.349601 -0.685158
v -0.002274 3.349601 0.400072
v -0.381912 3.200826 -0.457175
v -0.226101 3.178226 0.191012
v -0.002274 3.200826 -0.685158
v -0.002274 3.234888 0.418995
v -0.300526 3.025866 -0.376349
v -0.216455 2.903439 0.223751
v -0.002274 3.025866 -0.570768
v -0.002274 3.025866 0.418995
v -0.249792 2.841186 -0.288299
v -0.249792 2.841186 0.026417
v -0.002274 2.841186 -0.516282
v -0.002274 2.841186 -0.124602
v -0.298016 3.596839 -0.376349
v -0.253672 3.596839 0.320593
v -0.002274 3.596839 -0.604332
v -0.002274 3.596839 0.320593
v -0.343762 3.118814 -0.376349
v -0.180942 2.957161 0.497985
v -0.002274 3.118814 -0.604332
v -0.002274 2.957161 0.497985
v -0.155840 3.729973 -0.055720
v -0.115641 2.765074 0.063735
v -0.002274 2.706792 -0.043944
v -0.002274 3.729973 -0.055720
v -0.402079 3.491115 0.218993
v -0.440421 3.317117 0.260164
v -0.381912 3.229329 0.172080
v -0.300526 3.025866 0.289191
v -0.249792 2.841186 -0.005313
v -0.298016 3.596839 0.206848
v -0.180942 2.983544 0.510713
v -0.115641 2.765074 -0.121274
v -0.360190 3.491115 -0.156673
v -0.386884 3.335164 -0.138376
v -0.381912 3.213493 -0.177522
v -0.300526 3.025866 -0.080570
v -0.249792 2.841186 -0.084679
v -0.298016 3.596839 -0.117165
v -0.343762 3.058697 0.017878
v -0.155840 3.729973 -0.144045
v -0.002274 2.706792 -0.169128
v -0.002274 3.729973 -0.144045
v -0.081618 3.729973 -0.214697
v -0.061867 2.673235 0.059053
v -0.061867 2.739515 -0.216979
v -0.081618 3.729973 -0.024714
v -0.165559 3.491115 -0.561678
v -0.143771 3.491115 0.350871
v -0.174097 3.349601 -0.561678
v -0.139130 3.396589 0.400072
v -0.192695 3.200826 -0.561678
v -0.047237 3.234888 0.191012
v -0.152707 3.025866 -0.480852
v -0.127509 3.025866 0.418995
v -0.127780 2.841186 -0.392802
v -0.127780 2.841186 0.065566
v -0.151474 3.596839 -0.480852
v -0.129687 3.596839 0.320593
v -0.173951 3.118814 -0.480852
v -0.175833 2.957161 0.497985
v -0.061867 2.739515 0.008962
v -0.081618 3.729973 -0.055720
v -0.061867 2.739515 -0.145616
v -0.081618 3.729973 -0.144045
v -0.375149 3.227406 -0.457175
v -0.216619 3.295599 0.228363
v -0.002274 3.227406 -0.685158
v -0.002274 3.255383 0.415615
v -0.392365 3.245013 0.187817
v -0.382800 3.235231 -0.170528
v -0.189372 3.227406 -0.561678
v -0.063654 3.263777 0.228363
vt 0.560234 0.398402
vt 0.492373 0.372381
vt 0.523156 0.277321
vt 0.410718 0.242404
vt 0.400109 0.229155
vt 0.437260 0.147311
vt 0.520150 0.215090
vt 0.543197 0.249818
vt 0.495294 0.232101
vt 0.385456 0.117285
vt 0.433921 0.000080
vt 0.455113 0.123427
vt 0.178090 0.834405
vt 0.208966 0.861400
vt 0.154182 0.889591
vt 0.353406 0.868096
vt 0.320001 0.760727
vt 0.415134 0.836941
vt 0.149480 0.562639
vt 0.115350 0.532942
vt 0.175843 0.514659
vt 0.068623 0.544363
vt 0.000084 0.557041
vt 0.077067 0.469334
vt 0.367955 0.737009
vt 0.402495 0.673532
vt 0.128292 0.480942
vt 0.190636 0.446479
vt 0.000080 0.444672
vt 0.048566 0.313153
vt 0.495413 0.692224
vt 0.428237 0.613607
vt 0.433718 0.600770
vt 0.216199 0.413554
vt 0.159637 0.362137
vt 0.222330 0.405054
vt 0.142249 0.312235
vt 0.082229 0.253612
vt 0.150718 0.302768
vt 0.517537 0.595635
vt 0.441968 0.538669
vt 0.543355 0.542040
vt 0.216943 0.208388
vt 0.213991 0.192678
vt 0.305366 0.181889
vt 0.212708 0.191050
vt 0.173042 0.115598
vt 0.210196 0.083858
vt 0.470325 0.494164
vt 0.267893 0.244833
vt 0.226962 0.142192
vt 0.223424 0.814575
vt 0.166679 0.753938
vt 0.157797 0.739837
vt 0.132450 0.775293
vt 0.101024 0.819303
vt 0.501306 0.676555
vt 0.184065 0.323866
vt 0.085437 0.242480
vt 0.435499 0.281762
vt 0.449160 0.166890
vt 0.471733 0.156584
vt 0.143239 0.791997
vt 0.237983 0.677046
vt 0.279006 0.630752
vt 0.345853 0.510648
vt 0.352525 0.503153
vt 0.329805 0.360822
vt 0.375382 0.374493
vt 0.197852 0.789896
vt 0.113292 0.838835
vt 0.311505 0.548380
vt 0.645084 0.442177
vt 0.548870 0.190720
vt 0.589261 0.254872
vt 0.409343 0.999920
vt 0.484903 0.963258
vt 0.463445 0.763561
vt 0.089977 0.399678
vt 0.587142 0.794427
vt 0.608353 0.680895
vt 0.624554 0.601213
vt 0.191226 0.920260
vt 0.595195 0.777268
vt 0.472041 0.098857
vt 0.503021 0.137624
vt 0.125988 0.450960
vt 0.543896 0.876667
vn 0.308268 -0.880586 -0.359915
vn 0.879645 -0.475630 0.000000
vn 0.429284 -0.903170 0.000000
vn -0.798047 0.292771 0.526693
vn 0.000000 1.000000 0.000000
vn 0.475706 0.573346 -0.667067
vn 0.672524 0.692078 0.262182
vn 0.000000 0.275318 0.961353
vn 0.542949 0.066673 -0.837115
vn 0.704678 0.306678 0.639827
vn 0.000000 0.328396 0.944540
vn 0.486509 0.123782 -0.864862
vn -0.034957 -0.696160 0.717035
vn 0.714103 -0.669640 0.204058
vn 0.520394 -0.118938 -0.845603
vn 0.987627 -0.068140 0.141246
vn 0.000000 -0.754522 -0.656275
vn 0.506268 -0.480500 -0.716109
vn 0.691959 -0.646694 0.320905
vn 0.000000 -0.946849 0.321679
vn 0.000000 0.771910 -0.635732
vn 0.683515 0.729937 0.000000
vn 0.000000 0.933053 0.359739
vn 0.327227 -0.736129 -0.592483
vn -0.198084 0.808986 0.553448
vn 0.979620 0.054949 0.193199
vn 0.493473 -0.869761 0.000000
vn 0.200325 -0.590710 -0.781621
vn 0.861994 0.506919 0.000000
vn 0.975872 0.189296 -0.108816
vn 0.999138 -0.032541 -0.025780
vn -0.180326 0.979500 0.089791
vn 0.964276 -0.264900 0.000000
vn 0.683514 0.729937 0.000000
vn 0.792169 -0.609677 0.027617
vn 0.965152 0.261689 0.000000
vn 0.981796 0.155214 -0.109477
vn 0.968610 0.246441 -0.032581
vn 0.904834 -0.420900 -0.064183
vn 0.683514 0.729938 0.000000
vn 0.973835 -0.227022 0.010283
vn 0.357555 -0.860277 -0.363425
vn 0.498084 -0.865165 -0.058330
vn 0.301833 -0.154933 0.940687
vn 0.549379 0.507483 -0.663810
vn 0.000000 0.275317 0.961354
vn 0.602774 0.036368 -0.797083
vn 0.000000 0.461706 0.887033
vn 0.549520 0.068695 -0.832652
vn 0.062015 -0.298099 0.952518
vn 0.578777 -0.132281 -0.804685
vn 0.000000 -0.981347 0.192243
vn 0.462798 -0.431624 -0.774286
vn -0.199584 -0.868526 0.453683
vn 0.000000 0.946285 -0.323335
vn 0.000000 0.933052 0.359741
vn 0.394210 -0.689225 -0.607920
vn 0.243807 0.769629 0.590110
vn 0.283771 -0.851202 -0.441508
vn 0.481319 -0.876546 0.000000
vn 0.519184 0.132095 -0.844393
vn 0.031213 -0.718242 0.695093
vn 0.279828 -0.815015 0.507391
vn 0.991109 0.002296 -0.133034
vn 0.962332 0.244844 -0.118185
vn 0.582035 0.072760 -0.809902
vn 0.296072 -0.814116 0.499556
vn -0.403736 -0.849419 -0.339829
vn 0.278896 -0.327422 -0.902780
vn -0.429284 -0.903170 0.000000
vn 0.798047 0.292771 0.526693
vn -0.475706 0.573346 -0.667067
vn -0.672524 0.692078 0.262182
vn -0.523512 0.031586 -0.851433
vn -0.704678 0.306678 0.639827
vn 0.158616 0.461979 0.872592
vn -0.482576 0.060326 -0.873774
vn 0.034957 -0.696160 0.717035
vn -0.714103 -0.669640 0.204058
vn -0.520394 -0.118938 -0.845603
vn -0.721598 -0.638526 0.267546
vn 0.000000 -0.754523 -0.656274
vn -0.593235 -0.410298 -0.692623
vn -0.964276 -0.264900 0.000000
vn 0.574058 -0.725892 0.378864
vn -0.266859 0.888120 -0.374206
vn -0.683515 0.729937 0.000000
vn -0.378254 -0.692200 -0.614641
vn 0.898686 0.190572 -0.395027
vn 0.000000 0.741549 0.670899
vn -0.493473 -0.869761 0.000000
vn -0.200325 -0.590710 -0.781621
vn -0.861994 0.506919 0.000000
vn -0.980295 0.153164 -0.124751
vn -0.999138 -0.032541 -0.025780
vn -0.604749 -0.796416 0.000000
vn -0.683514 0.729937 0.000000
vn -0.922103 0.194789 0.334341
vn -0.965152 0.261689 0.000000
vn -0.984536 0.120898 -0.126780
vn -0.968610 0.246441 -0.032581
vn -0.904834 -0.420900 -0.064183
vn -0.964276 -0.264899 0.000000
vn -0.683514 0.729938 0.000000
vn -0.874819 -0.478913 -0.073030
vn -0.685880 -0.636489 -0.352775
vn -0.498084 -0.865165 -0.058330
vn 0.217950 0.415476 0.883107
vn -0.549379 0.507483 -0.663810
vn -0.583581 0.000000 -0.812055
vn 0.265485 0.730012 0.629762
vn -0.544079 0.000000 -0.839034
vn -0.062015 -0.298099 0.952518
vn -0.490051 -0.296064 -0.819876
vn -0.686317 -0.205808 -0.697576
vn -0.101006 -0.943772 0.314791
vn -0.455938 -0.624732 -0.633900
vn -0.243807 0.769629 0.590110
vn -0.283771 -0.851202 -0.441508
vn -0.481319 -0.876546 0.000000
vn -0.489356 0.061174 -0.869936
vn -0.031213 -0.718242 0.695093
vn -0.279828 -0.815015 0.507391
vn -0.991109 0.002296 -0.133034
vn -0.962332 0.244844 -0.118185
vn -0.550826 0.000000 -0.834620
vn -0.160096 -0.769568 0.618171
vn 0.403736 -0.849420 -0.339829
vn -0.278896 -0.327422 -0.902780
vn -0.332405 0.639792 0.692945
vn 0.427210 0.619386 -0.658674
vn 0.688991 0.365969 0.625586
vn 0.000000 0.275315 0.961354
vn 0.523512 0.031586 -0.851433
vn 0.748499 0.407183 0.523404
vn -0.158616 0.461979 0.872592
vn 0.482576 0.060326 -0.873774
vn 0.206210 -0.281551 0.937127
vn 0.980604 0.031903 0.193388
vn 0.557525 -0.259343 -0.788611
vn 0.721598 -0.638526 0.267546
vn 0.593235 -0.410298 -0.692623
vn 0.964276 -0.264899 0.000000
vn -0.574058 -0.725892 0.378864
vn 0.266859 0.888120 -0.374206
vn 0.487923 0.851909 0.190217
vn 0.378254 -0.692201 -0.614639
vn -0.898686 0.190571 -0.395027
vn 0.656867 0.184636 -0.731051
vn 0.714977 0.694588 -0.079725
vn 0.980295 0.153164 -0.124751
vn 0.819637 -0.572296 0.025923
vn 0.604749 -0.796416 0.000000
vn 0.922103 0.194789 0.334341
vn 0.842446 0.530528 -0.093939
vn 0.984536 0.120898 -0.126780
vn 0.999139 -0.041436 0.001877
vn 0.874819 -0.478913 -0.073030
vn 0.685880 -0.636489 -0.352775
vn 0.382738 -0.923857 0.000000
vn -0.217950 0.415476 0.883107
vn 0.496429 0.567996 -0.656460
vn 0.000000 0.275317 0.961353
vn 0.583581 0.000000 -0.812055
vn -0.265485 0.730012 0.629762
vn 0.544079 0.000000 -0.839034
vn -0.227827 -0.719185 0.656405
vn 0.490051 -0.296064 -0.819876
vn -0.814184 -0.580566 -0.006872
vn 0.686317 -0.205808 -0.697576
vn 0.101006 -0.943772 0.314791
vn 0.300080 0.882317 -0.362586
vn 0.455938 -0.624732 -0.633900
vn 0.000000 0.741538 0.670911
vn 0.720616 -0.418035 -0.553136
vn 0.481318 -0.876546 0.000000
vn 0.489356 0.061174 -0.869936
vn -0.059931 -0.742737 0.666895
vn 0.948294 0.051660 0.313161
vn 0.835460 -0.549503 -0.007299
vn 0.999138 -0.032540 -0.025780
vn 0.550826 0.000000 -0.834620
vn 0.160096 -0.769568 0.618171
vn -0.308268 -0.880586 -0.359915
vn -0.879645 -0.475630 0.000000
vn 0.332405 0.639792 0.692945
vn -0.427211 0.619387 -0.658673
vn -0.688991 0.365969 0.625585
vn -0.542949 0.066673 -0.837114
vn -0.748498 0.407182 0.523405
vn -0.486507 0.123781 -0.864864
vn -0.206210 -0.281552 0.937127
vn -0.980604 0.031903 0.193388
vn -0.557525 -0.259343 -0.788611
vn -0.987627 -0.068140 0.141246
vn -0.506268 -0.480500 -0.716109
vn -0.691959 -0.646694 0.320905
vn 0.000000 0.771906 -0.635737
vn -0.487924 0.851909 0.190217
vn -0.327228 -0.736130 -0.592482
vn 0.198084 0.808986 0.553448
vn -0.979620 0.054949 0.193199
vn -0.656867 0.184636 -0.731051
vn -0.714977 0.694587 -0.079725
vn -0.975872 0.189296 -0.108816
vn -0.819638 -0.572295 0.025923
vn 0.180326 0.979500 0.089791
vn -0.792169 -0.609677 0.027617
vn -0.842446 0.530528 -0.093939
vn -0.981796 0.155214 -0.109478
vn -0.999139 -0.041437 0.001877
vn -0.973835 -0.227022 0.010283
vn -0.357555 -0.860277 -0.363425
vn -0.382738 -0.923857 0.000000
vn -0.301834 -0.154933 0.940687
vn -0.496429 0.567995 -0.656460
vn -0.602775 0.036368 -0.797082
vn -0.549519 0.068694 -0.832653
vn 0.227828 -0.719187 0.656403
vn -0.578778 -0.132282 -0.804685
vn 0.814184 -0.580566 -0.006872
vn -0.462798 -0.431624 -0.774286
vn 0.199584 -0.868526 0.453683
vn -0.300080 0.882318 -0.362585
vn -0.394209 -0.689225 -0.607921
vn -0.720616 -0.418035 -0.553136
vn -0.481318 -0.876546 0.000000
vn -0.519184 0.132095 -0.844393
vn 0.059931 -0.742737 0.666895
vn -0.948294 0.051661 0.313161
vn -0.835460 -0.549503 -0.007299
vn -0.999138 -0.032540 -0.025780
vn -0.582035 0.072760 -0.809902
vn -0.296072 -0.814116 0.499556
s off
f 71/1/1 25/2/1 1/3/1
f 45/4/2 26/5/2 2/6/2
f 79/7/3 61/8/3 48/9/3
f 72/10/4 28/11/4 60/12/4
f 80/13/5 59/14/5 58/15/5
f 73/16/6 29/17/6 63/18/6
f 46/19/7 30/20/7 41/21/7
f 74/22/8 32/23/8 64/24/8
f 63/18/9 9/25/9 13/26/9
f 41/21/10 10/27/10 42/28/10
f 64/24/11 12/29/11 16/30/11
f 87/31/12 81/32/12 17/33/12
f 85/34/13 82/35/13 43/36/13
f 88/37/14 84/38/14 68/39/14
f 75/40/15 33/41/15 69/42/15
f 47/43/16 34/44/16 22/45/16
f 76/46/17 36/47/17 24/48/17
f 69/42/18 21/49/18 25/2/18
f 44/50/19 22/45/19 26/5/19
f 70/51/20 24/48/20 28/11/20
f 59/14/21 3/52/21 29/17/21
f 37/53/22 4/54/22 46/19/22
f 62/55/23 7/56/23 74/22/23
f 67/57/24 17/33/24 33/41/24
f 43/36/25 18/58/25 34/44/25
f 68/39/26 20/59/26 36/47/26
f 53/60/27 45/4/27 38/61/27
f 60/12/28 77/62/28 2/6/28
f 62/55/5 78/63/5 7/56/5
f 54/64/29 46/19/29 49/65/29
f 49/65/30 41/21/30 42/28/30
f 86/66/31 85/34/31 51/67/31
f 55/68/32 47/43/32 44/50/32
f 52/69/33 44/50/33 53/60/33
f 56/70/34 37/53/34 46/19/34
f 51/67/35 43/36/35 47/43/35
f 77/62/3 79/7/3 38/61/3
f 78/63/5 80/13/5 40/71/5
f 25/2/27 53/60/27 48/9/27
f 29/17/36 54/64/36 9/25/36
f 9/25/37 49/65/37 50/72/37
f 81/32/38 86/66/38 17/33/38
f 33/41/39 55/68/39 21/49/39
f 21/49/33 52/69/33 53/60/33
f 3/52/40 56/70/40 29/17/40
f 17/33/41 51/67/41 55/68/41
f 27/73/42 71/1/42 61/8/42
f 57/74/43 6/75/43 79/7/43
f 26/5/44 72/10/44 60/12/44
f 56/70/5 3/52/5 80/13/5
f 31/76/45 73/16/45 11/77/45
f 30/20/46 74/22/46 10/27/46
f 11/77/47 63/18/47 65/78/47
f 10/27/48 64/24/48 66/79/48
f 83/80/49 87/31/49 67/57/49
f 82/35/50 88/37/50 18/58/50
f 35/81/51 75/40/51 69/42/51
f 34/44/52 76/46/52 22/45/52
f 23/82/53 69/42/53 71/1/53
f 22/45/54 70/51/54 72/10/54
f 5/83/55 59/14/55 31/76/55
f 4/54/56 62/55/56 30/20/56
f 19/84/57 67/57/57 75/40/57
f 18/58/58 68/39/58 34/44/58
f 8/85/59 39/86/59 60/12/59
f 4/54/5 37/53/5 62/55/5
f 39/86/60 57/74/60 77/62/60
f 37/53/5 56/70/5 78/63/5
f 65/78/61 13/26/61 81/32/61
f 42/28/62 14/87/62 85/34/62
f 66/79/63 16/30/63 88/37/63
f 50/72/64 42/28/64 86/66/64
f 13/26/65 50/72/65 81/32/65
f 15/88/66 65/78/66 87/31/66
f 14/87/67 66/79/67 88/37/67
f 159/1/68 149/8/68 89/3/68
f 133/4/69 126/61/69 90/6/69
f 167/7/70 136/9/70 149/8/70
f 160/10/71 148/12/71 116/11/71
f 168/13/5 146/15/5 147/14/5
f 161/16/72 151/18/72 117/17/72
f 134/19/73 129/21/73 118/20/73
f 162/22/8 152/24/8 120/23/8
f 151/18/74 153/78/74 101/26/74
f 129/21/75 130/28/75 98/27/75
f 152/24/76 154/79/76 104/30/76
f 175/31/77 155/57/77 105/33/77
f 173/34/78 131/36/78 170/35/78
f 176/37/79 156/39/79 172/38/79
f 163/40/80 157/42/80 121/41/80
f 135/43/81 132/50/81 110/45/81
f 164/46/82 158/51/82 112/48/82
f 157/42/83 159/1/83 113/2/83
f 132/50/84 133/4/84 114/5/84
f 158/51/85 160/10/85 116/11/85
f 147/14/86 161/16/86 117/17/86
f 125/53/87 134/19/87 92/54/87
f 150/55/23 162/22/23 95/56/23
f 155/57/88 163/40/88 121/41/88
f 131/36/89 135/43/89 122/44/89
f 156/39/90 164/46/90 124/47/90
f 141/60/91 136/9/91 126/61/91
f 148/12/92 90/6/92 165/62/92
f 150/55/5 95/56/5 166/63/5
f 142/64/93 137/65/93 134/19/93
f 137/65/94 138/72/94 130/28/94
f 174/66/95 139/67/95 173/34/95
f 143/68/96 140/69/96 132/50/96
f 140/69/84 141/60/84 132/50/84
f 144/70/97 142/64/97 134/19/97
f 139/67/98 143/68/98 135/43/98
f 165/62/70 126/61/70 167/7/70
f 166/63/5 128/71/5 168/13/5
f 113/2/91 89/3/91 136/9/91
f 117/17/99 97/25/99 142/64/99
f 97/25/100 101/26/100 138/72/100
f 169/32/101 105/33/101 174/66/101
f 121/41/102 109/49/102 143/68/102
f 109/49/103 113/2/103 141/60/103
f 91/52/104 117/17/104 144/70/104
f 105/33/105 121/41/105 143/68/105
f 115/73/106 94/75/106 149/8/106
f 145/74/107 167/7/107 94/75/107
f 114/5/108 90/6/108 148/12/108
f 144/70/5 168/13/5 91/52/5
f 119/76/109 99/77/109 161/16/109
f 118/20/46 98/27/46 162/22/46
f 99/77/110 103/88/110 153/78/110
f 98/27/111 102/87/111 154/79/111
f 171/80/112 107/84/112 155/57/112
f 170/35/113 106/58/113 176/37/113
f 123/81/114 111/82/114 157/42/114
f 122/44/52 110/45/52 164/46/52
f 111/82/115 115/73/115 159/1/115
f 110/45/116 114/5/116 160/10/116
f 93/83/55 119/76/55 147/14/55
f 92/54/56 118/20/56 150/55/56
f 107/84/117 123/81/117 163/40/117
f 106/58/118 122/44/118 156/39/118
f 96/85/119 148/12/119 127/86/119
f 92/54/5 150/55/5 125/53/5
f 127/86/120 165/62/120 145/74/120
f 125/53/5 166/63/5 144/70/5
f 153/78/121 175/31/121 169/32/121
f 130/28/122 173/34/122 102/87/122
f 154/79/123 176/37/123 104/30/123
f 138/72/124 174/66/124 130/28/124
f 101/26/125 169/32/125 138/72/125
f 103/88/126 171/80/126 175/31/126
f 102/87/127 170/35/127 176/37/127
f 61/8/128 71/1/128 1/3/128
f 38/61/129 45/4/129 2/6/129
f 61/8/3 1/3/3 48/9/3
f 28/11/130 8/85/130 60/12/130
f 59/14/5 5/83/5 58/15/5
f 29/17/131 9/25/131 63/18/131
f 30/20/132 10/27/132 41/21/132
f 32/23/133 12/29/133 64/24/133
f 65/78/134 63/18/134 13/26/134
f 10/27/135 14/87/135 42/28/135
f 66/79/136 64/24/136 16/30/136
f 67/57/137 87/31/137 17/33/137
f 82/35/138 18/58/138 43/36/138
f 84/38/139 20/59/139 68/39/139
f 33/41/140 21/49/140 69/42/140
f 44/50/141 47/43/141 22/45/141
f 70/51/82 76/46/82 24/48/82
f 71/1/142 69/42/142 25/2/142
f 45/4/143 44/50/143 26/5/143
f 72/10/144 70/51/144 28/11/144
f 73/16/145 59/14/145 29/17/145
f 4/54/146 30/20/146 46/19/146
f 7/56/56 32/23/56 74/22/56
f 75/40/147 67/57/147 33/41/147
f 47/43/148 43/36/148 34/44/148
f 76/46/90 68/39/90 36/47/90
f 48/9/27 53/60/27 38/61/27
f 77/62/149 38/61/149 2/6/149
f 78/63/5 40/71/5 7/56/5
f 46/19/150 41/21/150 49/65/150
f 50/72/151 49/65/151 42/28/151
f 85/34/152 43/36/152 51/67/152
f 52/69/153 55/68/153 44/50/153
f 44/50/143 45/4/143 53/60/143
f 54/64/34 56/70/34 46/19/34
f 55/68/154 51/67/154 47/43/154
f 79/7/3 48/9/3 38/61/3
f 80/13/5 58/15/5 40/71/5
f 1/3/27 25/2/27 48/9/27
f 54/64/155 49/65/155 9/25/155
f 13/26/156 9/25/156 50/72/156
f 86/66/157 51/67/157 17/33/157
f 55/68/153 52/69/153 21/49/153
f 25/2/33 21/49/33 53/60/33
f 56/70/34 54/64/34 29/17/34
f 33/41/158 17/33/158 55/68/158
f 6/75/159 27/73/159 61/8/159
f 6/75/160 61/8/160 79/7/160
f 2/6/161 26/5/161 60/12/161
f 3/52/5 59/14/5 80/13/5
f 73/16/162 63/18/162 11/77/162
f 74/22/163 64/24/163 10/27/163
f 15/88/164 11/77/164 65/78/164
f 14/87/165 10/27/165 66/79/165
f 19/84/166 83/80/166 67/57/166
f 88/37/167 68/39/167 18/58/167
f 23/82/168 35/81/168 69/42/168
f 76/46/169 70/51/169 22/45/169
f 27/73/170 23/82/170 71/1/170
f 26/5/171 22/45/171 72/10/171
f 59/14/172 73/16/172 31/76/172
f 62/55/56 74/22/56 30/20/56
f 35/81/173 19/84/173 75/40/173
f 68/39/174 76/46/174 34/44/174
f 39/86/175 77/62/175 60/12/175
f 37/53/5 78/63/5 62/55/5
f 57/74/176 79/7/176 77/62/176
f 56/70/5 80/13/5 78/63/5
f 87/31/177 65/78/177 81/32/177
f 14/87/178 82/35/178 85/34/178
f 16/30/179 84/38/179 88/37/179
f 42/28/180 85/34/180 86/66/180
f 50/72/181 86/66/181 81/32/181
f 83/80/182 15/88/182 87/31/182
f 82/35/183 14/87/183 88/37/183
f 113/2/184 159/1/184 89/3/184
f 114/5/185 133/4/185 90/6/185
f 136/9/70 89/3/70 149/8/70
f 148/12/186 96/85/186 116/11/186
f 146/15/5 93/83/5 147/14/5
f 151/18/187 97/25/187 117/17/187
f 129/21/188 98/27/188 118/20/188
f 152/24/133 100/29/133 120/23/133
f 97/25/189 151/18/189 101/26/189
f 130/28/190 102/87/190 98/27/190
f 100/29/11 152/24/11 104/30/11
f 169/32/191 175/31/191 105/33/191
f 131/36/192 106/58/192 170/35/192
f 156/39/193 108/59/193 172/38/193
f 157/42/194 109/49/194 121/41/194
f 122/44/195 135/43/195 110/45/195
f 124/47/17 164/46/17 112/48/17
f 109/49/196 157/42/196 113/2/196
f 110/45/197 132/50/197 114/5/197
f 112/48/20 158/51/20 116/11/20
f 91/52/198 147/14/198 117/17/198
f 134/19/199 118/20/199 92/54/199
f 162/22/56 120/23/56 95/56/56
f 105/33/200 155/57/200 121/41/200
f 106/58/201 131/36/201 122/44/201
f 108/59/202 156/39/202 124/47/202
f 133/4/91 141/60/91 126/61/91
f 90/6/203 126/61/203 165/62/203
f 95/56/5 128/71/5 166/63/5
f 137/65/204 129/21/204 134/19/204
f 129/21/205 137/65/205 130/28/205
f 139/67/206 131/36/206 173/34/206
f 135/43/207 143/68/207 132/50/207
f 141/60/84 133/4/84 132/50/84
f 125/53/97 144/70/97 134/19/97
f 131/36/208 139/67/208 135/43/208
f 126/61/70 136/9/70 167/7/70
f 128/71/5 146/15/5 168/13/5
f 141/60/91 113/2/91 136/9/91
f 97/25/209 137/65/209 142/64/209
f 137/65/210 97/25/210 138/72/210
f 105/33/211 139/67/211 174/66/211
f 109/49/96 140/69/96 143/68/96
f 140/69/103 109/49/103 141/60/103
f 117/17/97 142/64/97 144/70/97
f 139/67/212 105/33/212 143/68/212
f 159/1/213 115/73/213 149/8/213
f 167/7/214 149/8/214 94/75/214
f 160/10/215 114/5/215 148/12/215
f 168/13/5 147/14/5 91/52/5
f 99/77/216 151/18/216 161/16/216
f 98/27/163 152/24/163 162/22/163
f 151/18/217 99/77/217 153/78/217
f 152/24/48 98/27/48 154/79/48
f 175/31/218 171/80/218 155/57/218
f 106/58/219 156/39/219 176/37/219
f 163/40/220 123/81/220 157/42/220
f 110/45/221 158/51/221 164/46/221
f 157/42/222 111/82/222 159/1/222
f 158/51/223 110/45/223 160/10/223
f 119/76/224 161/16/224 147/14/224
f 118/20/56 162/22/56 150/55/56
f 155/57/225 107/84/225 163/40/225
f 122/44/174 164/46/174 156/39/174
f 148/12/226 165/62/226 127/86/226
f 150/55/5 166/63/5 125/53/5
f 165/62/227 167/7/227 145/74/227
f 166/63/5 168/13/5 144/70/5
f 101/26/228 153/78/228 169/32/228
f 173/34/229 170/35/229 102/87/229
f 176/37/230 172/38/230 104/30/230
f 174/66/231 173/34/231 130/28/231
f 169/32/232 174/66/232 138/72/232
f 153/78/233 103/88/233 175/31/233
f 154/79/234 102/87/234 176/37/234
